<?xml version="1.0" encoding="utf-8"?>
<!-- Generator: Adobe Illustrator 24.1.3, SVG Export Plug-In . SVG Version: 6.00 Build 0)  -->
<svg version="1.1" id="Layer_1" xmlns="http://www.w3.org/2000/svg" xmlns:xlink="http://www.w3.org/1999/xlink" x="0px" y="0px"
	 viewBox="0 0 1080 1080" style="enable-background:new 0 0 1080 1080;" xml:space="preserve">
<style type="text/css">
	.st0{fill:#0F1230;}
	.st1{display:none;fill:#59FDD7;}
	.st2{display:none;fill:#28327F;}
	.st3{display:none;fill:none;stroke:#5AFED8;stroke-width:30;stroke-miterlimit:10;}
	.st4{fill:#5AFED8;}
	.st5{fill:none;stroke:#5AFED8;stroke-width:30;stroke-miterlimit:10;}
</style>
<g>
	<rect class="st0" width="1080" height="1080"/>
	<path class="st1" d="M845.9,540c0,53.1-0.1,106.2,0.1,159.3c0,11.8-4,19.8-14.9,25.9c-42.1,23.6-83.7,48-125.5,72.2
		c-44.3,25.6-88.5,51.1-132.8,76.7c-6.7,3.9-13.3,7.8-19.9,11.8c-8.6,5.3-16.9,5.2-25.8,0c-39.2-22.9-78.6-45.5-117.9-68.2
		c-44.8-25.9-89.7-51.8-134.5-77.7c-8.9-5.1-17.6-10.5-26.6-15.2c-9.9-5.3-14.1-13-14.1-24.4c0.2-103.8,0.1-207.7,0.1-311.6
		c0-3.1,0.3-6.1,0-9.2c-1.2-12.5,5.4-19.9,15.6-25.6c25.2-14.2,50.1-28.9,75.1-43.3c22.8-13.1,45.7-26.2,68.5-39.4
		c44.3-25.5,88.6-51,132.7-76.8c9.6-5.6,18.3-5.5,27.7,0c41.2,24,82.4,48,123.7,71.8c42.6,24.6,85.2,49,127.8,73.5
		c9,5.2,17.9,10.6,27.1,15.5c9.7,5.1,13.5,13,13.5,23.6C845.8,432.7,845.9,486.3,845.9,540z M277.3,539.9c0,48.8,0.1,97.5-0.1,146.3
		c0,4.2,1.3,6.3,4.9,8.3c19.8,11.2,39.5,22.7,59.1,34.1c32.9,19.1,65.8,38.3,98.7,57.3c31.2,18,62.6,35.8,93.7,54
		c4.5,2.6,7.9,2.8,12.2,0.1c12.5-7.6,25.3-15.1,38-22.4c34.8-20.1,69.6-40.2,104.4-60.2c36.7-21.1,73.4-42.2,110.1-63.1
		c3.2-1.8,4.4-3.8,4.4-7.6c-0.1-97.7-0.1-195.5,0-293.2c0-3.9-1.1-6-4.6-8c-30.5-17.4-60.9-35-91.3-52.6
		c-33.7-19.5-67.4-38.9-101.1-58.4c-20.7-11.9-41.4-23.8-62-35.8c-3-1.8-5.2-1.4-8.2,0.3c-34.7,20.2-69.5,40.2-104.3,60.3
		c-49.9,28.8-99.7,57.6-149.6,86.3c-3.5,2-4.5,4.1-4.5,8C277.4,442.4,277.3,491.2,277.3,539.9z"/>
	<path class="st2" d="M277.3,539.9c0-48.8,0-97.5-0.1-146.3c0-3.9,1.1-6,4.5-8c49.9-28.7,99.8-57.5,149.6-86.3
		c34.8-20.1,69.6-40.1,104.3-60.3c2.9-1.7,5.1-2,8.2-0.3c20.6,12,41.3,23.9,62,35.8c33.7,19.5,67.4,38.9,101.1,58.4
		c30.4,17.6,60.8,35.2,91.3,52.6c3.4,2,4.6,4.1,4.6,8c-0.1,97.7-0.1,195.5,0,293.2c0,3.7-1.2,5.7-4.4,7.6
		c-36.8,21-73.5,42-110.1,63.1c-34.8,20-69.6,40.1-104.4,60.2c-12.7,7.4-25.4,14.8-38,22.4c-4.3,2.6-7.7,2.5-12.2-0.1
		c-31.1-18.2-62.5-36-93.7-54c-32.9-19-65.8-38.2-98.7-57.3c-19.7-11.4-39.3-22.9-59.1-34.1c-3.6-2-4.9-4.1-4.9-8.3
		C277.4,637.5,277.3,588.7,277.3,539.9z M520.7,640.1c13.2,0,25.8,0,38.5,0c0-67.4,0-134.4,0-201.4c-13,0-25.7,0-38.5,0
		C520.7,505.9,520.7,572.8,520.7,640.1z"/>
	<path class="st3" d="M470.2,270.6l-128.2,74c-43.1,24.9-69.7,70.9-69.7,120.8v148c0,49.8,26.6,95.8,69.7,120.8l128.2,74
		c43.1,24.9,96.3,24.9,139.4,0l128.2-74c43.1-24.9,69.7-70.9,69.7-120.8v-148c0-49.8-26.6-95.9-69.7-120.8l-128.2-74
		C566.5,245.7,513.4,245.7,470.2,270.6z"/>
	<path class="st4" d="M520.7,640.1c0-67.3,0-134.2,0-201.4c12.8,0,25.5,0,38.5,0c0,67,0,134.1,0,201.4
		C546.5,640.1,533.9,640.1,520.7,640.1z"/>
</g>
<path class="st3" d="M422.6,322.2l-59.1,43c-70,50.9-99.3,141-72.5,223.3l22.6,69.5c26.7,82.3,103.4,138,189.9,138h73.1
	c86.5,0,163.2-55.7,189.9-138l22.6-69.5c26.7-82.3-2.5-172.4-72.5-223.3l-59.2-43C587.4,271.4,492.6,271.4,422.6,322.2z"/>
<polygon class="st5" points="797.6,390.6 540,241.9 282.3,390.6 282.3,688.2 539.9,836.9 797.6,688.2 "/>
<rect x="480.9" y="438.7" class="st4" width="116.4" height="29.2"/>
<rect x="480.9" y="610.9" class="st4" width="116.4" height="29.2"/>
</svg>
